<?xml version="1.0" standalone="no"?>
<!DOCTYPE svg PUBLIC "-//W3C//DTD SVG 20010904//EN"
 "http://www.w3.org/TR/2001/REC-SVG-20010904/DTD/svg10.dtd">
<svg version="1.0" xmlns="http://www.w3.org/2000/svg"
 width="350.000000pt" height="350.000000pt" viewBox="0 0 350.000000 350.000000"
 preserveAspectRatio="xMidYMid meet">

<g transform="translate(0.000000,350.000000) scale(0.100000,-0.100000)"
fill="#000000" stroke="none">
<path d="M1197 2831 c-67 -27 -115 -66 -149 -121 -27 -44 -33 -48 -79 -53
-101 -12 -193 -85 -226 -178 -16 -46 -18 -47 -67 -53 -208 -24 -342 -258 -258
-450 18 -39 19 -46 6 -57 -30 -24 -65 -98 -75 -157 -21 -116 34 -242 133 -306
l50 -32 3 -69 c3 -111 58 -213 144 -265 35 -21 41 -30 41 -60 1 -70 60 -158
134 -197 20 -11 58 -18 107 -19 l76 -2 47 -50 c85 -91 195 -119 317 -82 59 18
81 30 124 74 87 86 95 121 95 395 l0 229 48 28 c26 15 56 33 67 40 18 12 28 9
85 -29 l65 -42 5 -245 c6 -280 11 -302 96 -380 67 -61 124 -84 214 -84 93 -1
167 31 230 100 l43 46 76 2 c84 2 119 15 169 67 39 40 64 91 70 144 4 36 10
45 44 66 47 28 102 100 124 160 9 24 16 74 16 111 1 64 2 67 30 79 44 18 107
85 134 142 37 79 34 184 -6 264 -17 34 -37 66 -44 72 -12 10 -10 20 7 64 62
158 -12 341 -169 417 -23 11 -64 23 -91 26 -48 6 -50 7 -66 54 -32 89 -129
165 -228 177 -45 5 -51 9 -80 55 -139 217 -488 165 -559 -83 -5 -17 -10 -135
-10 -261 l-1 -229 -37 -23 c-20 -12 -51 -31 -68 -41 l-32 -18 -63 40 -64 40
-5 244 c-5 229 -6 247 -28 291 -30 60 -90 121 -149 149 -66 32 -181 36 -246
10z m189 -130 c90 -41 106 -91 102 -314 l-3 -167 -138 84 c-155 94 -184 117
-203 163 -65 153 90 303 242 234z m881 4 c48 -20 71 -41 94 -87 38 -74 14
-170 -53 -221 -27 -21 -77 -52 -281 -174 -5 -3 -7 82 -5 189 l3 195 28 36 c53
70 137 94 214 62z m-1267 -212 c0 -40 52 -143 89 -178 18 -16 114 -80 214
-140 l182 -111 3 -155 c2 -89 -1 -169 -8 -190 -14 -50 -77 -105 -128 -114 -83
-14 -175 54 -187 140 -9 56 20 121 71 160 38 29 45 66 17 97 -42 46 -129 -7
-184 -112 -19 -36 -24 -60 -24 -125 1 -70 4 -87 30 -134 72 -131 231 -184 370
-122 l45 20 0 -38 0 -38 -186 -112 c-102 -62 -201 -128 -220 -147 -49 -49 -75
-107 -82 -183 -7 -62 -9 -66 -34 -69 -59 -7 -118 51 -118 116 0 15 11 43 25
62 30 41 32 73 5 100 -26 26 -60 25 -94 -1 -27 -22 -28 -22 -54 -2 -56 42 -86
162 -55 218 10 17 11 17 23 -6 17 -34 70 -88 101 -105 77 -40 207 -36 250 7
43 43 5 117 -54 105 -82 -17 -96 -17 -131 -1 -24 12 -42 31 -57 61 -27 57 -21
94 26 153 40 50 42 60 17 91 -31 38 -70 30 -119 -25 -24 -26 -43 -52 -44 -58
-1 -7 -26 -34 -55 -61 l-55 -50 -27 21 c-15 11 -37 35 -49 53 -30 44 -32 131
-3 178 11 17 21 32 24 32 2 0 30 -12 62 -27 75 -34 178 -39 200 -9 19 27 18
70 -3 88 -10 9 -42 18 -72 22 -67 9 -99 25 -139 70 -141 161 50 398 241 300
l28 -15 -30 -34 c-60 -69 -66 -185 -13 -260 32 -47 80 -59 113 -29 26 23 24
53 -6 94 -28 38 -31 57 -13 95 15 34 56 55 107 55 33 0 44 5 58 26 15 24 15
29 2 53 -8 14 -29 31 -45 36 -17 6 -49 26 -70 45 -22 19 -50 42 -64 51 -25 16
-25 17 -8 53 19 39 70 76 106 76 17 0 22 -6 22 -27z m1585 7 c26 -16 65 -71
65 -92 0 -3 -23 -19 -50 -37 -28 -18 -55 -41 -60 -52 -6 -11 -21 -19 -35 -19
-31 0 -65 -33 -65 -62 0 -35 29 -58 71 -58 48 0 83 -16 99 -45 18 -34 15 -73
-9 -105 -39 -54 -19 -110 40 -110 57 0 103 74 103 165 0 62 -17 109 -56 152
l-20 21 33 18 c47 25 135 24 178 -1 56 -33 93 -87 99 -144 7 -80 -4 -118 -52
-166 -43 -43 -52 -46 -182 -71 -48 -9 -50 -89 -3 -115 31 -16 122 -4 188 26
29 14 55 25 57 25 2 0 13 -19 25 -42 29 -57 23 -133 -15 -183 -48 -63 -63 -63
-123 -6 -29 28 -59 63 -67 78 -18 35 -64 79 -92 87 -28 8 -74 -28 -74 -59 0
-13 16 -42 35 -65 30 -36 35 -49 35 -92 0 -43 -4 -54 -33 -83 -42 -42 -77 -51
-139 -35 -64 16 -98 -3 -98 -55 0 -41 22 -59 94 -75 99 -22 208 25 266 114 21
32 25 35 31 19 13 -31 10 -112 -5 -146 -7 -18 -27 -45 -44 -61 l-31 -28 -27
21 c-34 26 -68 27 -94 1 -26 -26 -25 -60 1 -93 29 -37 35 -87 15 -125 -19 -37
-66 -64 -104 -60 -25 3 -27 7 -34 64 -8 75 -43 146 -95 195 -21 20 -118 85
-215 144 l-178 107 0 161 c0 136 3 169 19 203 61 134 259 120 301 -23 20 -65
6 -110 -51 -166 -49 -48 -58 -72 -39 -108 8 -14 21 -19 49 -19 31 0 46 7 79
40 142 137 114 357 -56 458 -42 24 -57 27 -137 27 -75 0 -96 -4 -127 -22 l-38
-22 0 42 1 42 191 115 c120 73 203 129 224 154 34 40 74 130 74 166 0 26 33
26 75 0z m-865 -578 l35 -21 55 34 c30 19 61 35 68 35 9 0 12 -50 12 -215 0
-118 -3 -215 -7 -215 -5 0 -34 16 -66 35 -32 19 -61 35 -64 35 -3 0 -31 -16
-63 -35 -32 -19 -60 -35 -64 -35 -3 0 -6 99 -6 221 l0 221 33 -20 c17 -10 48
-28 67 -40z m-230 -807 c0 -197 -6 -222 -63 -272 -89 -78 -213 -59 -272 42
-40 68 -27 178 28 223 21 18 291 181 300 182 4 0 7 -79 7 -175z m689 85 c163
-98 190 -126 198 -205 3 -23 0 -59 -6 -78 -24 -72 -130 -137 -198 -121 -58 14
-102 44 -128 87 -24 43 -25 49 -25 225 0 100 2 182 4 182 3 0 72 -41 155 -90z"/>
</g>
</svg>
